<svg xmlns="http://www.w3.org/2000/svg" viewBox="0 0 25 25" id="amazon-music">
  <g fill="#DE002B" fill-rule="evenodd">
    <path d="M18.4551,13.6915c-0.5616,-0.1248 -1.118,0.2293 -1.2428,0.7909c-0.1248,0.5616 0.2293,1.118 0.7909,1.2428l3.692,0.8204l-0.8417,4.2084c-0.1128,0.5642 0.2531,1.1129 0.8172,1.2258c0.5641,0.1128 1.1129,-0.2531 1.2257,-0.8172l1.0417,-5.2083c0.1111,-0.5557 -0.2423,-1.0982 -0.7955,-1.2212l-4.6875,-1.0416Zm-16.6955,2.3454c-0.41686,-0.3965 -1.0762,-0.38 -1.47268,0.0369c-0.39648,0.4168 -0.379962,1.0762 0.036894,1.4726c2.22535,2.1166 6.37666,3.4119 10.9375,3.4119c3.6721,0 7.0346,-0.8364 9.3618,-2.2315c0.4934,-0.2958 0.6536,-0.9356 0.3578,-1.4291c-0.2958,-0.4934 -0.9356,-0.6536 -1.429,-0.3578c-1.9261,1.1546 -4.8938,1.9351 -8.2906,1.9351c-4.28082,0 -7.81537,-1.2342 -9.50174,-2.8381Z"></path>
    <path fill="#58368A" d="M0.689477,4.35301c0.413623,-0.1486 0.876013,-0.0216 1.1557,0.31742l0.75899,0.91999l0.75898,-0.91999c0.2797,-0.33902 0.74208,-0.46602 1.15571,-0.31742c0.41362,0.1486 0.68947,0.54082 0.68947,0.98032v5.20837c0,0.5753 -0.46637,1.0416 -1.04166,1.0416c-0.5753,0 -1.04167,-0.4663 -1.04167,-1.0416v-2.41232c-0.15654,0.09037 -0.33581,0.13956 -0.52083,0.13956c-0.18503,0 -0.3643,-0.04919 -0.52084,-0.13956v2.41232c0,0.5753 -0.46637,1.0416 -1.04166,1.0416c-0.5753,0 -1.04167,-0.4663 -1.04167,-1.0416v-5.20837c0,-0.4395 0.275854,-0.83172 0.689477,-0.98032Zm6.60219,-0.06135c0.57529,0 1.04166,0.46637 1.04166,1.04167v4.16666h1.04167v-4.16666c0,-0.5753 0.46637,-1.04167 1.0417,-1.04167c0.5753,0 1.0416,0.46637 1.0416,1.04167v4.16666c0,1.15061 -0.9327,2.08331 -2.0833,2.08331h-1.04167c-1.15059,0 -2.08333,-0.9327 -2.08333,-2.08331v-4.16666c0,-0.5753 0.46637,-1.04167 1.04167,-1.04167Zm11.4583,0c0.5753,0 1.0417,0.46637 1.0417,1.04167v5.20837c0,0.5753 -0.4664,1.0416 -1.0417,1.0416c-0.5753,0 -1.0417,-0.4663 -1.0417,-1.0416v-5.20837c0,-0.5753 0.4664,-1.04167 1.0417,-1.04167Zm-3.9062,0c-1.2945,0 -2.3438,1.04933 -2.3438,2.34375v0.26042c0,1.15059 0.9327,2.08333 2.0833,2.08333v0.26041c0,0.14383 -0.1166,0.26042 -0.2604,0.26042h-0.7812c-0.5753,0 -1.0417,0.46637 -1.0417,1.04171c0,0.5753 0.4664,1.0416 1.0417,1.0416h0.7812c1.2944,0 2.3438,-1.0493 2.3438,-2.34373v-0.26041c0,-1.15059 -0.9328,-2.08333 -2.0834,-2.08333v-0.26042c0,-0.14383 0.1166,-0.26042 0.2605,-0.26042h0.7812c0.5753,0 1.0417,-0.46637 1.0417,-1.04166c0,-0.5753 -0.4664,-1.04167 -1.0417,-1.04167h-0.7812Zm8.0729,0c-1.1506,0 -2.0834,0.93274 -2.0834,2.08333v3.125c0,1.15061 0.9328,2.08331 2.0834,2.08331h1.0416c0.5753,0 1.0417,-0.4663 1.0417,-1.0416c0,-0.57534 -0.4664,-1.04171 -1.0417,-1.04171h-1.0416v-3.125h1.0416c0.5753,0 1.0417,-0.46637 1.0417,-1.04166c0,-0.5753 -0.4664,-1.04167 -1.0417,-1.04167h-1.0416Z"></path>
  </g>
</svg>
