<svg xmlns="http://www.w3.org/2000/svg" viewBox="0 0 24 24" id="napster">
  <path fill="#334497" d="M2.124 14.546c1.277 11.707 18.473 11.478 19.726.071l.014-.082c2.841-1.734 2.851-5.813.009-7.557V3.674a10.37 10.37 0 0 0-2.424.354C15.48-.342 8.536-.342 4.567 4.033a10.701 10.701 0 0 0-2.449-.359v3.312c-2.825 1.743-2.825 5.784.006 7.56zM6.46 4.741c3.117-2.867 7.952-2.871 11.078-.009-.344.167-.673.348-.997.549a10.003 10.003 0 0 0-9.094.005 10.879 10.879 0 0 0-.987-.545zM4.059 5.8a8.76 8.76 0 0 1 3.364 1.738 8.023 8.023 0 0 1 9.142-.005v.001a8.739 8.739 0 0 1 3.368-1.729v7.7c0 10.479-15.874 10.394-15.874.014V5.8z"></path>
  <path fill="#68B951" d="M7.253 15.66c.213.119.735.286 1.234.311 1.224.053 2.966.071 2.966.071-.639-2.837-1.631-2.68-5.469-2.646h.001c.038.391-.005 1.543 1.268 2.264z"></path>
  <path fill="#334497" d="M13.836 18.941a6.76 6.76 0 0 1-3.673 0s-.14.071-.31.315c-.135.196-.179.459-.179.459a4.61 4.61 0 0 0 4.655 0c-.005-.005-.014-.192-.16-.425-.154-.253-.333-.349-.333-.349z"></path>
  <path fill="#68B951" d="M15.51 15.966c.494-.023 1.021-.192 1.234-.311 1.273-.721 1.23-1.872 1.268-2.264-3.848-.028-4.835-.186-5.469 2.647h.001c-.001-.001 1.742-.015 2.966-.072z"></path>
  <path fill="#334497" d="M11.996 18.527a6.55 6.55 0 0 0 2.44-1.457H9.562a6.504 6.504 0 0 0 2.434 1.457z"></path>
</svg>
